<?xml version="1.0" encoding="UTF-8" standalone="no"?>
<svg
   viewBox="0 0 260.00528 260.09903"
   height="260.09903"
   width="260.00528"
   xml:space="preserve"
   id="svg14168"
   version="1.1"
   sodipodi:docname="icon.svg"
   inkscape:version="1.3.2 (091e20ef0f, 2023-11-25)"
   xmlns:inkscape="http://www.inkscape.org/namespaces/inkscape"
   xmlns:sodipodi="http://sodipodi.sourceforge.net/DTD/sodipodi-0.dtd"
   xmlns="http://www.w3.org/2000/svg"
   xmlns:svg="http://www.w3.org/2000/svg"
   xmlns:rdf="http://www.w3.org/1999/02/22-rdf-syntax-ns#"
   xmlns:cc="http://creativecommons.org/ns#"
   xmlns:dc="http://purl.org/dc/elements/1.1/"><sodipodi:namedview
     id="namedview1"
     pagecolor="#ffffff"
     bordercolor="#000000"
     borderopacity="0.25"
     inkscape:showpageshadow="2"
     inkscape:pageopacity="0.0"
     inkscape:pagecheckerboard="0"
     inkscape:deskcolor="#d1d1d1"
     inkscape:zoom="2.7987859"
     inkscape:cx="135.59451"
     inkscape:cy="135.77316"
     inkscape:window-width="1876"
     inkscape:window-height="1024"
     inkscape:window-x="0"
     inkscape:window-y="0"
     inkscape:window-maximized="1"
     inkscape:current-layer="g14176" /><metadata
     id="metadata14174"><rdf:RDF><cc:Work
         rdf:about=""><dc:format>image/svg+xml</dc:format><dc:type
           rdf:resource="http://purl.org/dc/dcmitype/StillImage" /></cc:Work></rdf:RDF></metadata><defs
     id="defs14172" /><g
     transform="matrix(1.3333333,0,0,-1.3333333,0,260.09902)"
     id="g14176"
     inkscape:label="g14176"><g
       id="g14178"
       inkscape:label="g14178"
       transform="translate(1.2129568,118.51156)"><path
         id="path14198"
         style="fill:#000000;fill-opacity:1;fill-rule:evenodd;stroke:none;stroke-width:2.09698"
         d="m 82.39236,-28.288743 h 26.41775 v -12.745443 l 24.03139,-38.230039 0.4844,-0.817822 0.40891,-0.819919 0.33552,-0.851374 0.29567,-0.893313 0.22228,-0.893313 0.18663,-0.924768 0.0734,-0.926865 0.0419,-0.933156 -0.0419,-0.851374 -0.0734,-0.851374 -0.11323,-0.819919 -0.22228,-0.851374 -0.22019,-0.786367 -0.29567,-0.77798 -0.33552,-0.780076 -0.36907,-0.744428 -0.40891,-0.704585 -0.4844,-0.704585 -0.52424,-0.671034 -0.5557,-0.631191 -0.59135,-0.597639 -0.6291,-0.557797 -0.71297,-0.515857 -0.70458,-0.45085 -33.027435,52.793562 0.188729,-46.248889 -0.04194,-0.671033 -0.03146,-0.671034 -0.07549,-0.664742 -0.113237,-0.671034 -0.148885,-0.631191 -0.186632,-0.629094 -0.22228,-0.63119 -0.220182,-0.59764 -0.295675,-0.591348 -0.262122,-0.597639 -0.335517,-0.5557 -0.335517,-0.517954 -0.369068,-0.524245 -0.408911,-0.515857 -0.411008,-0.482307 -0.442463,-0.4844 -0.482305,-0.40891 -0.484402,-0.45085 -0.482306,-0.36907 -0.524245,-0.36697 -0.557796,-0.37746 -0.5557,-0.29567 -0.591348,-0.29358 -0.5557,-0.29567 -0.631191,-0.22858 -0.597639,-0.22228 -0.631191,-0.14678 -0.671034,-0.14679 -0.664742,-0.14889 -0.671034,-0.0734 -0.671033,-0.0398 -0.664743,-0.0335 z" /><path
         id="path14200"
         style="fill:#000000;fill-opacity:1;fill-rule:evenodd;stroke:none;stroke-width:2.09698"
         d="m 82.39236,-24.988098 v 14.563525 l -8.83877,-5.496184 -0.671034,-0.375359 -0.746524,-0.329226 -0.704586,-0.262123 -0.73604,-0.262122 -0.746524,-0.188728 -0.77798,-0.104849 -0.786367,-0.0734 -0.77798,-0.04194 -0.77798,0.04194 -0.744427,0.0734 -0.746525,0.104849 -1.409171,0.377456 -0.704585,0.262122 -0.671033,0.295675 -0.631191,0.335516 -0.631191,0.408911 -0.629094,0.402621 -1.115593,0.966707 -0.524245,0.524245 -0.482306,0.589251 -0.442462,0.59764 -0.408911,0.631191 L 82.39236,3.0590067 82.130237,18.03354 v 0.671033 l 0.08178,0.662646 0.07339,0.67313 0.106946,0.671034 0.146788,0.631191 0.188728,0.631191 0.220183,0.629094 0.22228,0.599736 0.262123,0.589251 0.295674,0.597639 0.335517,0.557797 0.335516,0.515857 0.369069,0.524245 0.408911,0.515857 0.408911,0.482305 0.893313,0.893314 0.484403,0.442462 0.524244,0.377457 0.515857,0.366971 0.5557,0.369069 0.557797,0.304062 0.557796,0.293577 0.59764,0.262122 0.589251,0.262123 0.631191,0.18034 0.631191,0.188728 0.637482,0.146789 0.664742,0.115334 0.671034,0.106946 0.662645,0.03984 0.712973,0.03355 0.851374,-0.03355 0.853471,-0.07339 0.817822,-0.146789 0.819919,-0.188728 0.819919,-0.220183 0.777983,-0.304062 0.77798,-0.327128 0.74442,-0.377457 0.70459,-0.442463 0.70458,-0.482305 0.67104,-0.484402 0.59135,-0.5557 0.59764,-0.631191 0.55569,-0.631191 0.51796,-0.671033 0.4823,-0.704585 23.41069,-37.41012 0.40891,-0.704585 0.32922,-0.712973 0.33552,-0.73604 0.22018,-0.786367 0.18873,-0.77798 0.14679,-0.780076 0.0755,-0.817823 0.0398,-0.819919 v -0.736042 l -0.0734,-0.746524 -0.11534,-0.704586 -0.18034,-0.704585 -0.18873,-0.712973 -0.26212,-0.662645 -0.29358,-0.671034 -0.33551,-0.664743 -0.36907,-0.597639 -0.40891,-0.631191 -0.45085,-0.555699 -0.48441,-0.557797 -0.51585,-0.482305 -1.1135,-0.966708 -0.63119,-0.411008 -17.68383,28.16243867 V -24.988098 Z" /><path
         id="path14202"
         style="fill:#000000;fill-opacity:1;fill-rule:evenodd;stroke:none;stroke-width:2.09698"
         d="m 74.111387,49.127556 0.03145,0.704585 0.04194,0.671033 0.106946,0.671034 0.113237,0.664743 0.148885,0.63119 0.186631,0.637482 0.188729,0.631191 0.253734,0.589251 0.262123,0.59764 0.295674,0.557796 0.304062,0.589252 0.366971,0.524245 0.369069,0.515857 0.377456,0.524245 0.442463,0.484402 0.450851,0.442463 0.442462,0.45085 0.482306,0.408911 0.515857,0.400523 0.524245,0.377457 0.515857,0.335517 0.557796,0.327128 0.597639,0.304062 0.59764,0.253735 0.589251,0.262123 1.262382,0.377456 0.631191,0.146788 0.671033,0.106946 0.671034,0.115334 0.664742,0.03146 h 1.375619 l 0.671034,-0.03146 0.664742,-0.115334 0.671034,-0.106946 0.631191,-0.146788 1.260284,-0.377456 0.599737,-0.262123 0.597639,-0.253735 0.589251,-0.304062 0.557797,-0.327128 0.524245,-0.335517 0.515857,-0.377457 0.524245,-0.400523 0.482305,-0.408911 0.442463,-0.45085 0.442463,-0.442463 0.45085,-0.484402 0.369069,-0.524245 0.375359,-0.515857 0.369068,-0.524245 0.295675,-0.589252 0.293577,-0.557796 0.262122,-0.59764 0.262121,-0.589251 0.18873,-0.631191 0.18034,-0.637482 0.14679,-0.63119 0.11533,-0.664743 0.11534,-0.671034 0.0315,-0.671033 0.0419,-0.704585 -0.0419,-0.664743 -0.0315,-0.671033 -0.11533,-0.671034 -0.11534,-0.664743 -0.14679,-0.629093 -0.18034,-0.639579 -0.18872,-0.631191 -0.262127,-0.589252 -0.262122,-0.597639 -0.293577,-0.591348 -0.295675,-0.5557 -0.369068,-0.524245 -0.375359,-0.515857 -0.369069,-0.524245 -0.45085,-0.484402 L 96.88249,39.691147 96.440027,39.280139 95.957722,38.839773 95.433477,38.470704 94.91762,38.093248 94.393375,37.72418 93.835578,37.430603 93.246327,37.12654 92.648688,36.872806 92.048951,36.610683 91.419858,36.390501 90.788667,36.233227 90.157476,36.086438 89.486442,35.93965 88.8217,35.86626 l -0.671034,-0.03355 -0.704585,-0.04194 -0.671034,0.04194 -0.664742,0.03355 -0.671034,0.07339 -0.671033,0.146788 -0.631191,0.146789 -0.631191,0.157274 -0.631191,0.220182 -0.589251,0.262123 -0.59764,0.253734 -0.597639,0.304063 -0.557796,0.293577 -0.515857,0.369068 -0.524245,0.377456 -0.515857,0.369069 -0.482306,0.440366 -0.442462,0.411008 -0.450851,0.482305 -0.442463,0.484402 -0.377456,0.524245 -0.369069,0.515857 -0.366971,0.524245 -0.304062,0.5557 -0.295674,0.591348 -0.262123,0.597639 -0.253734,0.589252 -0.188729,0.631191 -0.186631,0.639579 -0.148885,0.629093 -0.113237,0.664743 -0.106946,0.671034 -0.04194,0.671033 z" /></g></g></svg>
